<svg xmlns="http://www.w3.org/2000/svg" width="180" height="45.1" viewBox="0 0 180 45.1">
  <g id="appgate__Logo_White_RGB_ForWeb" transform="translate(-77.629 -82.49)">
    <path id="Path_4864" data-name="Path 4864" d="M97.969,134.877V132a9.563,9.563,0,0,1-7.642,3.3,12.3,12.3,0,1,1,0-24.592,9.56,9.56,0,0,1,7.642,3.3v-3.079l4.637,1.961v23.906Zm-7.546-3.727c4.152,0,7.451-3.631,7.451-8.026,0-4.446-3.3-8.122-7.451-8.122s-7.451,3.676-7.451,8.122C82.972,127.519,86.268,131.15,90.423,131.15Z" transform="translate(0 -19.2)" fill="#fff"/>
    <path id="Path_4865" data-name="Path 4865" d="M169.07,144.807V110.818l4.49,1.958v.882a10.9,10.9,0,0,1,7.642-3.108,12.279,12.279,0,0,1,0,24.559,10.836,10.836,0,0,1-7.642-3.154v14.733Zm4.682-22.073c0,4.063,3.3,7.93,7.345,7.93,4.11,0,7.406-3.868,7.406-7.93s-3.3-7.93-7.406-7.93c-4.049,0-7.345,3.874-7.345,7.93Z" transform="translate(-62.239 -19.098)" fill="#fff"/>
    <path id="Path_4866" data-name="Path 4866" d="M255.65,144.807V110.818l4.493,1.958v.882a10.89,10.89,0,0,1,7.642-3.108,12.279,12.279,0,0,1,0,24.559,10.826,10.826,0,0,1-7.642-3.154v14.733Zm4.685-22.073c0,4.063,3.3,7.93,7.345,7.93,4.11,0,7.406-3.868,7.406-7.93s-3.3-7.93-7.406-7.93C263.631,114.8,260.335,118.678,260.335,122.734Z" transform="translate(-121.169 -19.098)" fill="#fff"/>
    <path id="Path_4867" data-name="Path 4867" d="M365.223,133.99a12.128,12.128,0,0,1-12.276,11.849,12.522,12.522,0,0,1-9.657-4.443l4.152-2.629c1.434,1.386,2.964,2.721,5.4,2.721,4.969,0,7.214-3.58,7.645-7.5v-2.772a10.219,10.219,0,0,1-7.55,3.392,12.325,12.325,0,0,1,0-24.65,10.4,10.4,0,0,1,7.55,3.223V110.41l4.727,1.964Zm-4.87-11.753c0-4.395-3.3-7.985-7.345-7.985s-7.307,3.583-7.307,7.985,3.245,8.026,7.307,8.026S360.353,126.68,360.353,122.237Z" transform="translate(-178.996 -18.697)" fill="#fff"/>
    <path id="Path_4868" data-name="Path 4868" d="M446.409,134.877V132a9.563,9.563,0,0,1-7.642,3.3,12.3,12.3,0,1,1,0-24.592,9.56,9.56,0,0,1,7.642,3.3v-3.079l4.637,1.958v23.909Zm-7.546-3.727c4.152,0,7.451-3.631,7.451-8.026,0-4.446-3.3-8.122-7.451-8.122s-7.451,3.676-7.451,8.122C431.412,127.519,434.708,131.15,438.863,131.15Z" transform="translate(-237.163 -19.2)" fill="#fff"/>
    <path id="Path_4869" data-name="Path 4869" d="M523.983,108.8c0,2.2,1.293,2.817,3.251,2.817v4.791c-5.209,0-7.933-2.2-7.933-7.595V96.195H515.06V91.787h4.251v-9.3l4.682,1.916v7.381h5.544v4.395h-5.554Z" transform="translate(-297.734)" fill="#fff"/>
    <path id="Path_4870" data-name="Path 4870" d="M582.515,128.4h5.637a12.51,12.51,0,0,1-1.182,1.916,11.72,11.72,0,0,1-9.472,4.717,12.4,12.4,0,0,1,0-24.794,12.107,12.107,0,0,1,12.04,12.421,11.107,11.107,0,0,1-.144,1.814h-19.1a7.424,7.424,0,0,0,7.115,6.308A6.528,6.528,0,0,0,582.515,128.4Zm-12.136-7.79h13.9a7.2,7.2,0,0,0-6.879-5.976,7.389,7.389,0,0,0-7.019,5.976Z" transform="translate(-331.909 -18.887)" fill="#fff"/>
  </g>
</svg>
