<svg xmlns="http://www.w3.org/2000/svg" width="33" height="33" viewBox="0 0 33 33">
  <g id="Social_Icons_RGB_YouTube" transform="translate(-9 -1)">
    <circle id="Ellipse_342" data-name="Ellipse 342" cx="16.5" cy="16.5" r="16.5" transform="translate(9 1)" fill="#fff"/>
    <path id="Path_793" data-name="Path 793" d="M26.93,12.76A2.45,2.45,0,0,0,25.19,11c-1.54-.42-7.69-.42-7.69-.42s-6.15,0-7.69.42a2.45,2.45,0,0,0-1.74,1.73,27.44,27.44,0,0,0,0,9.48A2.44,2.44,0,0,0,9.81,24c1.54.42,7.69.42,7.69.42s6.15,0,7.69-.42a2.45,2.45,0,0,0,1.74-1.73,27.44,27.44,0,0,0,0-9.48Zm-11.4,7.69v-5.9l5.12,2.95Z" transform="translate(8)" fill="#d64527"/>
  </g>
</svg>
