<svg xmlns="http://www.w3.org/2000/svg" width="180" height="45" viewBox="0 0 180 45">
  <g id="appgate__Logo_Black_RGB_ForWeb" transform="translate(-77.629 -82.49)">
    <path id="Path_4873" data-name="Path 4873" d="M97.969,134.824v-2.868a9.57,9.57,0,0,1-7.642,3.289,12.276,12.276,0,1,1,0-24.538A9.567,9.567,0,0,1,97.969,114v-3.072l4.637,1.957v23.853ZM90.423,131.1c4.152,0,7.451-3.623,7.451-8.008,0-4.436-3.3-8.1-7.451-8.1s-7.451,3.668-7.451,8.1A7.742,7.742,0,0,0,90.423,131.1Z" transform="translate(0 -19.22)" fill="#0c0c0c"/>
    <path id="Path_4874" data-name="Path 4874" d="M169.07,144.731V110.818l4.49,1.953v.88a10.912,10.912,0,0,1,7.642-3.1,12.252,12.252,0,1,1,0,24.5,10.848,10.848,0,0,1-7.642-3.147v14.7Zm4.682-22.024c0,4.054,3.3,7.913,7.345,7.913,4.11,0,7.406-3.859,7.406-7.913s-3.3-7.913-7.406-7.913c-4.049,0-7.345,3.866-7.345,7.913Z" transform="translate(-62.239 -19.118)" fill="#0c0c0c"/>
    <path id="Path_4875" data-name="Path 4875" d="M255.65,144.731V110.818l4.493,1.953v.88a10.9,10.9,0,0,1,7.642-3.1,12.252,12.252,0,1,1,0,24.5,10.838,10.838,0,0,1-7.642-3.147v14.7Zm4.685-22.024c0,4.054,3.3,7.913,7.345,7.913,4.11,0,7.406-3.859,7.406-7.913s-3.3-7.913-7.406-7.913C263.631,114.795,260.335,118.66,260.335,122.707Z" transform="translate(-121.169 -19.118)" fill="#0c0c0c"/>
    <path id="Path_4876" data-name="Path 4876" d="M365.223,133.937a12.116,12.116,0,0,1-12.276,11.823,12.533,12.533,0,0,1-9.657-4.433l4.152-2.623c1.434,1.383,2.964,2.715,5.4,2.715,4.969,0,7.214-3.572,7.645-7.482v-2.766a10.229,10.229,0,0,1-7.55,3.384,12.3,12.3,0,1,1,0-24.6,10.406,10.406,0,0,1,7.55,3.215v-2.766l4.727,1.96Zm-4.87-11.727c0-4.385-3.3-7.967-7.345-7.967s-7.307,3.576-7.307,7.967,3.245,8.008,7.307,8.008S360.353,126.643,360.353,122.21Z" transform="translate(-178.996 -18.716)" fill="#0c0c0c"/>
    <path id="Path_4877" data-name="Path 4877" d="M446.409,134.824v-2.868a9.57,9.57,0,0,1-7.642,3.289,12.276,12.276,0,1,1,0-24.538A9.567,9.567,0,0,1,446.409,114v-3.072l4.637,1.953v23.856Zm-7.546-3.719c4.152,0,7.451-3.623,7.451-8.008,0-4.436-3.3-8.1-7.451-8.1s-7.451,3.668-7.451,8.1A7.742,7.742,0,0,0,438.863,131.1Z" transform="translate(-237.163 -19.22)" fill="#0c0c0c"/>
    <path id="Path_4878" data-name="Path 4878" d="M523.983,108.739c0,2.192,1.293,2.811,3.251,2.811v4.78c-5.209,0-7.933-2.192-7.933-7.578V96.164H515.06v-4.4h4.251V82.49l4.682,1.912v7.365h5.544v4.385h-5.554Z" transform="translate(-297.734)" fill="#0c0c0c"/>
    <path id="Path_4879" data-name="Path 4879" d="M582.515,128.36h5.637a12.479,12.479,0,0,1-1.182,1.912,11.729,11.729,0,0,1-9.472,4.707,12.37,12.37,0,0,1,0-24.739,12.092,12.092,0,0,1,12.04,12.393,11.058,11.058,0,0,1-.144,1.81h-19.1a7.418,7.418,0,0,0,7.115,6.294A6.533,6.533,0,0,0,582.515,128.36Zm-12.136-7.772h13.9a7.2,7.2,0,0,0-6.879-5.962,7.385,7.385,0,0,0-7.019,5.962Z" transform="translate(-331.909 -18.907)" fill="#0c0c0c"/>
  </g>
</svg>
